HIERARCHY
ROOT Hips
{
	OFFSET 0.000000 83.214638 0.000000
	CHANNELS 6 Xposition Yposition Zposition Xrotation Yrotation Zrotation
	JOINT Pelvis
	{
		OFFSET 0.000000 0.000000 0.000000
		CHANNELS 3 Xrotation Yrotation Zrotation
		JOINT LeftUpLeg
		{
			OFFSET 8.479700 -4.795502 -0.379100
			CHANNELS 3 Xrotation Yrotation Zrotation
			JOINT LeftLeg
			{
				OFFSET 0.024144 -32.555107 0.112900
				CHANNELS 3 Xrotation Yrotation Zrotation
				JOINT LeftFoot
				{
					OFFSET -0.024144 -32.638630 -3.012600
					CHANNELS 3 Xrotation Yrotation Zrotation
					JOINT LeftToeBase
					{
						OFFSET 0.970200 -13.225400 11.864200
						CHANNELS 3 Xrotation Yrotation Zrotation
						End Site
						{
							OFFSET 0.000000 12.319262 0.000000
						}
					}
					JOINT LFootTongue
					{
						OFFSET 1.142400 -1.059800 6.665200
						CHANNELS 3 Xrotation Yrotation Zrotation
						End Site
						{
							OFFSET 0.000000 12.319262 0.000000
						}
					}
				}
				JOINT LeftPantLeg
				{
					OFFSET 0.918482 -16.533964 -2.284700
					CHANNELS 3 Xrotation Yrotation Zrotation
					End Site
					{
						OFFSET 0.350399 24.744368 0.000000
					}
				}
			}
		}
		JOINT RightUpLeg
		{
			OFFSET -8.479700 -4.795502 -0.379100
			CHANNELS 3 Xrotation Yrotation Zrotation
			JOINT RightLeg
			{
				OFFSET -0.023144 -32.555092 0.112900
				CHANNELS 3 Xrotation Yrotation Zrotation
				JOINT RightFoot
				{
					OFFSET 0.023144 -32.638641 -3.012700
					CHANNELS 3 Xrotation Yrotation Zrotation
					JOINT RightToeBase
					{
						OFFSET -0.970200 -13.225400 11.864200
						CHANNELS 3 Xrotation Yrotation Zrotation
						End Site
						{
							OFFSET 0.000000 12.319244 0.000000
						}
					}
					JOINT RFootTongue
					{
						OFFSET -1.142200 -1.059800 6.665200
						CHANNELS 3 Xrotation Yrotation Zrotation
						End Site
						{
							OFFSET 0.000000 12.319243 0.000000
						}
					}
				}
				JOINT RightPantLeg
				{
					OFFSET -0.919482 -16.533978 -2.284800
					CHANNELS 3 Xrotation Yrotation Zrotation
					End Site
					{
						OFFSET -0.350400 24.744419 0.000000
					}
				}
			}
		}
	}
	JOINT Spine
	{
		OFFSET 0.000000 7.722000 1.166200
		CHANNELS 3 Xrotation Yrotation Zrotation
		JOINT Spine1
		{
			OFFSET 0.000000 12.024101 0.248800
			CHANNELS 3 Xrotation Yrotation Zrotation
			JOINT Spine2
			{
				OFFSET 0.000000 11.502998 -0.491200
				CHANNELS 3 Xrotation Yrotation Zrotation
				JOINT Neck
				{
					OFFSET 0.000000 18.430702 -3.123100
					CHANNELS 3 Xrotation Yrotation Zrotation
					JOINT Head
					{
						OFFSET 0.000000 9.051102 1.034000
						CHANNELS 3 Xrotation Yrotation Zrotation
						JOINT HairB
						{
							OFFSET 0.208400 24.786102 24.822300
							CHANNELS 3 Xrotation Yrotation Zrotation
							End Site
							{
								OFFSET 0.000000 32.263779 0.000000
							}
						}
						JOINT HairA
						{
							OFFSET -7.081100 24.428299 23.196600
							CHANNELS 3 Xrotation Yrotation Zrotation
							End Site
							{
								OFFSET 0.000000 32.263779 0.000000
							}
						}
						JOINT Hat
						{
							OFFSET 16.728800 15.048294 -15.439601
							CHANNELS 3 Xrotation Yrotation Zrotation
							End Site
							{
								OFFSET 0.000000 32.263779 0.000000
							}
						}
					}
				}
				JOINT LeftShoulder
				{
					OFFSET 6.197800 13.665199 -4.064700
					CHANNELS 3 Xrotation Yrotation Zrotation
					JOINT LeftArm
					{
						OFFSET 7.778100 -0.187103 -1.709300
						CHANNELS 3 Xrotation Yrotation Zrotation
						JOINT LeftForeArm
						{
							OFFSET 22.049376 0.000000 0.000000
							CHANNELS 3 Xrotation Yrotation Zrotation
							JOINT LeftHand
							{
								OFFSET 23.009392 0.000000 0.000000
								CHANNELS 3 Xrotation Yrotation Zrotation
								JOINT LeftHandThumb1
								{
									OFFSET 3.507191 -2.063065 3.133727
									CHANNELS 3 Xrotation Yrotation Zrotation
									JOINT LeftHandThumb2
									{
										OFFSET 3.101337 -1.790558 1.790558
										CHANNELS 3 Xrotation Yrotation Zrotation
										JOINT LeftHandThumb3
										{
											OFFSET 3.058640 -1.765907 1.765906
											CHANNELS 3 Xrotation Yrotation Zrotation
											End Site
											{
												OFFSET -0.415260 3.926476 -0.049563
											}
										}
									}
								}
								JOINT LeftHandIndex1
								{
									OFFSET 11.334419 -0.901459 3.706815
									CHANNELS 3 Xrotation Yrotation Zrotation
									JOINT LeftHandIndex2
									{
										OFFSET 3.283112 0.000000 0.000000
										CHANNELS 3 Xrotation Yrotation Zrotation
										JOINT LeftHandIndex3
										{
											OFFSET 3.323853 0.000000 0.000000
											CHANNELS 3 Xrotation Yrotation Zrotation
											End Site
											{
												OFFSET -1.135597 3.097809 0.402452
											}
										}
									}
								}
								JOINT LeftHandMiddle1
								{
									OFFSET 11.335861 0.000000 0.000000
									CHANNELS 3 Xrotation Yrotation Zrotation
									JOINT LeftHandMiddle2
									{
										OFFSET 3.410492 0.000000 0.000000
										CHANNELS 3 Xrotation Yrotation Zrotation
										JOINT LeftHandMiddle3
										{
											OFFSET 3.312172 0.000000 0.000000
											CHANNELS 3 Xrotation Yrotation Zrotation
											End Site
											{
												OFFSET -1.150200 3.080154 0.400270
											}
										}
									}
								}
								JOINT LeftHandRing1
								{
									OFFSET 11.514786 -0.013176 -3.003090
									CHANNELS 3 Xrotation Yrotation Zrotation
									JOINT LeftHandRing2
									{
										OFFSET 3.053307 0.000000 0.000000
										CHANNELS 3 Xrotation Yrotation Zrotation
										JOINT LeftHandRing3
										{
											OFFSET 3.295807 0.000000 0.000000
											CHANNELS 3 Xrotation Yrotation Zrotation
											End Site
											{
												OFFSET -1.281006 3.013344 0.375733
											}
										}
									}
								}
								JOINT LeftHandPinky1
								{
									OFFSET 10.518692 -0.960396 -5.730441
									CHANNELS 3 Xrotation Yrotation Zrotation
									JOINT LeftHandPinky2
									{
										OFFSET 2.861649 0.000000 0.000000
										CHANNELS 3 Xrotation Yrotation Zrotation
										JOINT LeftHandPinky3
										{
											OFFSET 2.863380 0.000000 0.000000
											CHANNELS 3 Xrotation Yrotation Zrotation
											End Site
											{
												OFFSET -0.843597 2.711159 0.369971
											}
										}
									}
								}
							}
							JOINT LSleeve
							{
								OFFSET 6.676277 -0.344902 -1.011730
								CHANNELS 3 Xrotation Yrotation Zrotation
								End Site
								{
									OFFSET 0.000000 14.885353 0.000000
								}
							}
						}
					}
				}
				JOINT RightShoulder
				{
					OFFSET -6.197800 13.665199 -4.064700
					CHANNELS 3 Xrotation Yrotation Zrotation
					JOINT RightArm
					{
						OFFSET -7.778100 -0.187103 -1.709300
						CHANNELS 3 Xrotation Yrotation Zrotation
						JOINT RightForeArm
						{
							OFFSET -22.049376 0.000000 0.000000
							CHANNELS 3 Xrotation Yrotation Zrotation
							JOINT RightHand
							{
								OFFSET -23.009392 0.000000 0.000000
								CHANNELS 3 Xrotation Yrotation Zrotation
								JOINT RightHandThumb1
								{
									OFFSET -3.507191 -2.063065 3.133727
									CHANNELS 3 Xrotation Yrotation Zrotation
									JOINT RightHandThumb2
									{
										OFFSET -3.101337 -1.790558 1.790558
										CHANNELS 3 Xrotation Yrotation Zrotation
										JOINT RightHandThumb3
										{
											OFFSET -3.058640 -1.765907 1.765906
											CHANNELS 3 Xrotation Yrotation Zrotation
											End Site
											{
												OFFSET 0.415260 3.926476 -0.049563
											}
										}
									}
								}
								JOINT RightHandIndex1
								{
									OFFSET -11.334419 -0.901459 3.706815
									CHANNELS 3 Xrotation Yrotation Zrotation
									JOINT RightHandIndex2
									{
										OFFSET -3.283112 0.000000 0.000000
										CHANNELS 3 Xrotation Yrotation Zrotation
										JOINT RightHandIndex3
										{
											OFFSET -3.323853 0.000000 0.000000
											CHANNELS 3 Xrotation Yrotation Zrotation
											End Site
											{
												OFFSET 1.135597 3.097809 0.402452
											}
										}
									}
								}
								JOINT RightHandMiddle1
								{
									OFFSET -11.335861 0.000000 0.000000
									CHANNELS 3 Xrotation Yrotation Zrotation
									JOINT RightHandMiddle2
									{
										OFFSET -3.410492 0.000000 0.000000
										CHANNELS 3 Xrotation Yrotation Zrotation
										JOINT RightHandMiddle3
										{
											OFFSET -3.312172 0.000000 0.000000
											CHANNELS 3 Xrotation Yrotation Zrotation
											End Site
											{
												OFFSET 1.150200 3.080154 0.400270
											}
										}
									}
								}
								JOINT RightHandRing1
								{
									OFFSET -11.514786 -0.013176 -3.003090
									CHANNELS 3 Xrotation Yrotation Zrotation
									JOINT RightHandRing2
									{
										OFFSET -3.053307 0.000000 0.000000
										CHANNELS 3 Xrotation Yrotation Zrotation
										JOINT RightHandRing3
										{
											OFFSET -3.295807 0.000000 0.000000
											CHANNELS 3 Xrotation Yrotation Zrotation
											End Site
											{
												OFFSET 1.281006 3.013344 0.375733
											}
										}
									}
								}
								JOINT RightHandPinky1
								{
									OFFSET -10.518692 -0.960396 -5.730441
									CHANNELS 3 Xrotation Yrotation Zrotation
									JOINT RightHandPinky2
									{
										OFFSET -2.861649 0.000000 0.000000
										CHANNELS 3 Xrotation Yrotation Zrotation
										JOINT RightHandPinky3
										{
											OFFSET -2.863380 0.000000 0.000000
											CHANNELS 3 Xrotation Yrotation Zrotation
											End Site
											{
												OFFSET 0.843597 2.711159 0.369971
											}
										}
									}
								}
							}
							JOINT RSleeve
							{
								OFFSET -6.676277 -0.344902 -1.011730
								CHANNELS 3 Xrotation Yrotation Zrotation
								End Site
								{
									OFFSET 0.000000 14.885353 0.000000
								}
							}
						}
					}
				}
				JOINT Backpack
				{
					OFFSET 0.000000 -2.471497 36.677502
					CHANNELS 3 Xrotation Yrotation Zrotation
					End Site
					{
						OFFSET 0.000000 20.427315 0.000000
					}
				}
				JOINT Hood
				{
					OFFSET 0.000000 18.754097 -10.431000
					CHANNELS 3 Xrotation Yrotation Zrotation
					JOINT Hood1
					{
						OFFSET 0.000000 -5.011002 -7.685901
						CHANNELS 3 Xrotation Yrotation Zrotation
						End Site
						{
							OFFSET 0.000000 9.175140 0.000000
						}
					}
				}
				JOINT LHoodieString
				{
					OFFSET 5.250500 16.397697 3.089900
					CHANNELS 3 Xrotation Yrotation Zrotation
					JOINT LHoodieString1
					{
						OFFSET 0.257700 -6.364304 3.694600
						CHANNELS 3 Xrotation Yrotation Zrotation
						JOINT LHoodieString2
						{
							OFFSET 0.000000 -9.643799 2.679100
							CHANNELS 3 Xrotation Yrotation Zrotation
							End Site
							{
								OFFSET 0.000000 10.009018 0.000000
							}
						}
					}
				}
				JOINT RHoodieString
				{
					OFFSET -5.250500 16.397697 3.089900
					CHANNELS 3 Xrotation Yrotation Zrotation
					JOINT RHoodieString1
					{
						OFFSET -0.257700 -6.364304 3.694600
						CHANNELS 3 Xrotation Yrotation Zrotation
						JOINT RHoodieString2
						{
							OFFSET 0.000000 -9.643799 2.679100
							CHANNELS 3 Xrotation Yrotation Zrotation
							End Site
							{
								OFFSET 0.000000 10.009018 0.000000
							}
						}
					}
				}
			}
			JOINT LBackpack_Strap
			{
				OFFSET 15.223200 -7.719803 -6.610900
				CHANNELS 3 Xrotation Yrotation Zrotation
				End Site
				{
					OFFSET 0.000000 16.040596 0.000000
				}
			}
			JOINT RBackpack_Strap
			{
				OFFSET -15.223000 -7.719803 -6.610900
				CHANNELS 3 Xrotation Yrotation Zrotation
				End Site
				{
					OFFSET 0.000000 16.040596 0.000000
				}
			}
		}
	}
	JOINT BoyFacialAnim_Joint
	{
		OFFSET 1.000000 -82.208099 -1.550900
		CHANNELS 3 Xrotation Yrotation Zrotation
		End Site
		{
			OFFSET 0.000000 30.012791 0.000000
		}
	}
}
MOTION
Frames: 4
Frame Time: 0.033333
2.232222 70.207817 0.753057 7.909713 -5.643696 -5.288689 -0.000000 -0.000000 -0.000000 -31.782766 -1.649485 1.326672 98.736334 9.115185 1.028355 9.012239 6.214494 3.654728 -0.000000 -0.000000 -0.000000 -0.000000 -0.000000 -0.000000 0.000001 0.000000 -0.000000 -28.166454 -7.927863 11.468423 61.485438 -9.696479 2.520577 -40.641965 -0.994023 -7.446130 -0.000000 0.000001 0.000000 -0.000000 0.000001 0.000000 0.000001 -0.000002 0.000002 15.079205 -3.364148 9.042125 4.252235 -0.784360 0.964196 4.247123 -0.861543 0.940176 -3.917648 1.264538 1.050480 -22.979970 9.165339 -3.708702 -0.000000 -0.000000 -0.000000 -0.000000 -0.000000 -0.000000 -0.000000 -0.000000 -0.000000 0.776101 -5.791844 0.096668 9.243956 -7.391845 -65.803368 -0.000013 -61.621830 -0.000014 9.569203 -3.067231 13.006241 -6.561743 4.171441 -2.620903 3.467880 10.051370 3.610241 -0.000000 0.000002 -0.000001 -3.429280 -0.550191 -45.493923 0.730241 3.090826 -26.579703 -0.000003 -0.000004 -0.000003 -3.286255 -2.233950 -36.645744 1.128689 3.782517 -33.219031 0.000003 0.000002 -0.000001 -1.527448 0.152221 -36.317656 0.936026 3.471155 -30.174058 -0.000002 -0.000001 -0.000000 0.817839 3.553584 -41.867916 1.571056 0.296206 -39.612867 -0.000001 0.000002 -0.000002 -0.000000 -0.000000 0.000001 0.617021 2.070396 5.009675 -28.927637 26.240760 72.946195 0.000001 32.668737 -0.000003 8.255886 16.216677 -0.445806 -6.211851 -3.506620 1.085966 4.975802 -6.004990 2.338416 -0.000000 0.000003 -0.000001 -2.100258 -3.137638 62.696991 0.700057 -3.045514 25.885568 -0.000000 -0.000003 0.000001 0.467987 -3.790608 52.493815 2.365683 -5.228416 48.666266 0.000001 0.000000 -0.000000 2.707204 -5.514984 54.503011 1.444334 -4.247406 37.546895 -0.000004 -0.000001 0.000002 -0.701422 -1.341172 36.551211 2.140633 -5.022384 46.147736 0.000001 -0.000003 -0.000000 -0.000000 0.000001 -0.000001 -0.000000 0.000000 -0.000001 -0.000000 0.000000 -0.000001 -0.000000 0.000000 -0.000001 -0.000000 0.000000 -0.000001 -0.000000 0.000000 -0.000001 -0.000000 0.000000 -0.000000 -0.000000 0.000000 -0.000001 -0.000000 0.000000 -0.000001 -0.000000 0.000000 -0.000000 -0.000000 -0.000001 0.000000 -0.000000 -0.000001 0.000000 -0.000000 -0.000000 -0.000000 
1.893298 70.534210 9.515969 8.956309 -9.939697 -4.208282 -0.000000 0.000001 -0.000000 -47.467363 -2.170779 3.941581 108.038409 7.650685 -1.462661 3.772176 5.468216 3.196685 -0.000002 -0.000000 0.000000 -0.000002 -0.000000 0.000001 -0.000002 0.000001 0.000000 -17.737030 -6.101564 11.371914 54.518526 -10.218424 -1.523658 -43.140585 0.660151 -2.303100 -0.000000 -0.000000 -0.000001 -0.000000 -0.000000 -0.000001 0.000003 -0.000000 0.000001 13.865825 0.296022 6.778075 4.373461 -0.078514 0.674278 4.373631 -0.140149 0.674943 -3.665327 1.344964 0.126621 -23.270185 8.680674 -3.757266 0.000000 0.000000 -0.000000 0.000000 0.000000 -0.000000 0.000000 0.000000 -0.000000 0.640794 -4.444130 -0.195719 13.536429 0.376275 -65.426430 0.000014 -61.228985 0.000020 5.860905 -3.255064 14.110621 -6.445947 4.003377 -2.818097 3.468712 10.050758 3.609731 -0.000000 -0.000003 0.000003 -3.805718 -0.557557 -47.360388 0.758668 3.146941 -27.102402 -0.000001 0.000001 -0.000005 -3.552692 -2.123929 -38.661312 1.190176 3.874602 -34.139970 0.000002 0.000003 0.000004 -1.643318 0.222059 -37.884430 0.954934 3.503435 -30.485036 0.000003 0.000002 -0.000000 0.550289 3.298810 -42.795281 1.599569 0.330453 -39.982356 -0.000003 0.000002 -0.000002 -0.000001 0.000001 -0.000001 0.568977 3.399694 3.058833 -36.166302 29.476726 76.844833 0.000006 29.480251 -0.000011 5.150161 20.310515 -4.620841 -6.266702 -3.367378 1.212117 4.972990 -6.006696 2.336562 0.000001 0.000000 0.000001 -2.522139 -2.928460 62.790769 0.710375 -3.066638 26.078902 -0.000001 0.000000 -0.000000 0.454213 -3.807182 52.926186 2.390546 -5.250093 48.938514 0.000003 0.000000 -0.000002 2.462092 -5.337771 54.241114 1.465218 -4.274384 37.828115 -0.000000 -0.000002 0.000000 -1.845229 0.508179 34.859960 2.147695 -5.029117 46.228209 0.000001 -0.000003 -0.000002 0.000000 0.000001 0.000000 -0.000001 0.000000 -0.000001 -0.000001 0.000000 -0.000001 -0.000001 0.000000 -0.000001 -0.000001 0.000000 -0.000001 -0.000001 0.000000 0.000000 -0.000001 0.000000 0.000000 -0.000001 0.000000 -0.000001 -0.000001 0.000000 0.000000 -0.000001 0.000000 0.000000 0.000001 -0.000001 0.000000 0.000001 -0.000001 0.000000 -0.000000 0.000001 -0.000000 
1.499153 71.930977 19.182281 10.309644 -13.890436 -1.591478 -0.000001 -0.000000 0.000000 -59.628603 0.571945 6.063255 109.494134 7.499068 -2.713419 -4.015421 6.993980 2.824330 0.000000 0.000001 -0.000000 0.000000 0.000001 -0.000000 0.000000 0.000000 0.000000 -6.495876 -6.280565 7.644126 42.969885 -6.445496 -7.195668 -37.247450 -0.346760 3.335633 -0.000001 0.000001 -0.000000 -0.000001 0.000001 -0.000000 -0.000000 -0.000002 0.000001 12.570777 4.408048 3.362639 4.390724 0.730819 0.299867 4.392106 0.702926 0.336198 -4.068199 1.230032 -1.065163 -22.306039 6.732701 -3.866418 0.000001 0.000000 -0.000000 0.000001 0.000000 -0.000000 0.000001 0.000000 -0.000000 0.558382 -3.461383 -0.874715 14.494718 8.902028 -63.020482 -0.000023 -58.904016 -0.000018 5.333859 -5.057722 15.114872 -6.418328 3.942019 -2.887198 3.465587 10.052118 3.611697 0.000001 -0.000003 -0.000000 -3.950326 -0.347460 -49.103856 0.785312 3.198384 -27.583726 -0.000002 -0.000003 -0.000002 -3.682954 -1.909436 -40.311882 1.231301 3.934427 -34.743912 -0.000002 0.000001 0.000002 -1.621894 0.411482 -39.019713 0.965140 3.520698 -30.651792 -0.000001 0.000001 -0.000002 0.552893 3.323703 -43.248761 1.617970 0.352288 -40.218982 -0.000001 -0.000000 -0.000004 -0.000000 0.000001 0.000001 0.578249 3.601188 0.952594 -41.209257 30.879500 77.079573 -0.000004 28.595055 0.000002 4.958572 24.442906 -9.699478 -6.438049 -3.237583 1.261689 4.918798 -6.041992 2.300724 -0.000003 0.000001 0.000001 -3.332115 -2.579783 63.284974 0.730060 -3.106463 26.444420 0.000002 0.000003 0.000001 0.068699 -3.535610 53.216773 2.473475 -5.320906 49.838804 0.000001 -0.000001 0.000001 1.815094 -4.863271 53.898044 1.535078 -4.362625 38.756071 -0.000000 -0.000000 0.000000 -2.998856 2.520833 33.593203 2.188445 -5.067704 46.691289 0.000001 -0.000001 0.000000 0.000002 -0.000001 0.000001 0.000002 -0.000000 0.000001 0.000002 -0.000000 0.000001 0.000002 -0.000000 0.000001 0.000002 -0.000000 0.000001 0.000002 -0.000000 0.000001 -0.000000 -0.000001 0.000001 0.000002 -0.000000 0.000001 0.000002 -0.000000 0.000001 -0.000000 -0.000001 0.000001 0.000001 -0.000001 0.000000 0.000001 -0.000001 0.000000 -0.000001 -0.000000 0.000000 
0.731680 74.549744 29.844675 11.818195 -15.522163 0.851945 -0.000001 0.000001 -0.000000 -66.319723 4.637317 7.522904 103.214260 8.055933 -3.399356 -13.780882 5.914773 4.543661 -0.000003 -0.000000 -0.000001 -0.000003 -0.000000 -0.000000 0.000003 0.000000 -0.000000 4.318429 -12.631649 1.894451 27.154206 1.307919 -9.720667 -16.620982 -0.993044 9.601510 -0.000001 0.000001 -0.000001 -0.000001 0.000001 -0.000001 -0.000001 -0.000001 0.000001 11.043151 7.901532 0.110116 4.115489 1.438968 -0.025530 4.112570 1.444992 0.040946 -4.743598 0.915664 -2.142007 -19.618670 3.427934 -3.722961 -0.000000 -0.000000 -0.000000 -0.000000 -0.000000 -0.000000 -0.000000 -0.000000 -0.000000 0.500576 -2.509757 -1.611603 11.133457 15.861634 -57.996229 0.000022 -54.051658 0.000026 9.328409 -7.080969 14.557831 -6.633223 3.882960 -2.927787 3.474310 10.046918 3.606217 0.000001 -0.000002 -0.000002 -3.791776 0.028441 -50.333969 0.793025 3.213095 -27.721778 -0.000001 -0.000000 -0.000005 -3.504327 -1.465649 -41.350942 1.250576 3.961993 -35.023656 0.000002 0.000002 0.000001 -1.485136 0.674220 -39.698367 0.968030 3.525564 -30.698787 0.000003 0.000000 -0.000000 0.766243 3.565539 -43.600325 1.633032 0.370034 -40.411982 -0.000006 -0.000003 -0.000001 0.000000 -0.000000 0.000002 0.506485 2.279606 -0.579696 -44.743941 30.491457 74.794936 0.000009 27.030742 -0.000001 10.341992 29.145346 -15.054333 -6.413935 -2.846016 1.723870 4.971177 -6.007345 2.335413 0.000000 0.000003 0.000001 -3.852937 -2.453063 64.129971 0.736196 -3.118771 26.557514 0.000000 -0.000001 0.000002 -0.401795 -3.211435 53.567695 2.526084 -5.364673 50.403934 -0.000000 -0.000000 -0.000000 1.465248 -4.624880 54.342423 1.590186 -4.430194 39.474709 0.000002 0.000000 0.000004 -3.151484 2.762054 33.587052 2.212445 -5.090134 46.962472 0.000000 -0.000002 0.000002 -0.000000 -0.000001 0.000000 0.000002 0.000000 0.000000 0.000002 0.000000 0.000000 0.000002 0.000000 0.000000 0.000002 0.000000 0.000000 0.000002 0.000000 0.000000 -0.000001 -0.000000 0.000000 0.000002 0.000000 0.000000 0.000002 0.000000 0.000000 -0.000001 -0.000000 0.000000 -0.000002 0.000000 -0.000000 -0.000002 0.000000 -0.000000 -0.000001 0.000001 -0.000000 
